<svg width="702" height="780">
<rect width="700" style="fill: white" height="780"/>
<polyline transform="" points="1,471 699,471 699,621 1,621 1,471" style="fill:none; stroke:black; stroke-width:1" arrow=""/>
<polyline transform="" points="1,1 699,1 699,151 1,151 1,1" style="fill:none; stroke:black; stroke-width:1" arrow=""/>
<polyline transform="" points="1,314 699,314 699,464 1,464 1,314" style="fill:none; stroke:black; stroke-width:1" arrow=""/>
<polyline transform="" points="1,157 699,157 699,307 1,307 1,157" style="fill:none; stroke:black; stroke-width:1" arrow=""/>
<polyline transform="" points="1,628 699,628 699,778 1,778 1,628" style="fill:none; stroke:black; stroke-width:1" arrow=""/>
<g transform="translate(1,1)"/>
<g transform="translate(1,1)"><g y="52.5" w="56.25" h="75" x="320.875">
<rect y="52.5" width="56.25" style="stroke:black; stroke-width:1; fill:none" x="320.875" height="75"/>
</g>
<g>
<polyline style="stroke:black; stroke-width:1; fill:white" points="377.125,26.5 689.125,26.5 689.125,52.5 543.125,52.5 382.125,90 523.125,52.5 377.125,52.5 377.125,26.5"/>
<image y="2" width="292" transform="translate(377.125,26.5)" xlink:href="dialog-1-1.png" x="10" height="22"/>
</g>
</g>
<g transform="translate(1,157)"/>
<g transform="translate(1,157)"><g y="52.5" w="56.25" h="75" x="320.875">
<rect y="52.5" width="56.25" style="stroke:black; stroke-width:1; fill:none" x="320.875" height="75"/>
</g>
<g>
<polyline style="stroke:black; stroke-width:1; fill:white" points="377.125,21.5 665.125,21.5 665.125,52.5 531.125,52.5 382.125,90 511.125,52.5 377.125,52.5 377.125,21.5"/>
<image y="2" width="268" transform="translate(377.125,21.5)" xlink:href="dialog-2-2.png" x="10" height="27"/>
</g>
</g>
<g transform="translate(1,314)"/>
<g transform="translate(1,314)"><g y="52.5" w="56.25" h="75" x="320.875">
<rect y="52.5" width="56.25" style="stroke:black; stroke-width:1; fill:none" x="320.875" height="75"/>
</g>
<g>
<polyline style="stroke:black; stroke-width:1; fill:white" points="377.125,21.5 500.125,21.5 500.125,52.5 448.625,52.5 382.125,90 428.625,52.5 377.125,52.5 377.125,21.5"/>
<image y="2" width="103" transform="translate(377.125,21.5)" xlink:href="dialog-3-3.png" x="10" height="27"/>
</g>
</g>
<g transform="translate(1,471)"/>
<g transform="translate(1,471)"><g y="52.5" w="58.0188679245283" h="75" x="203.657232704403">
<image y="52.5" width="58.0188679245283" xlink:href="image-pokey-1.gif" x="203.657232704403" height="75"/>
</g>
<g>
<polyline style="stroke:black; stroke-width:1; fill:white" points="261.676100628931,27.5 518.676100628931,27.5 518.676100628931,52.5 400.176100628931,52.5 266.676100628931,90 380.176100628931,52.5 261.676100628931,52.5 261.676100628931,27.5"/>
<image y="2" width="237" transform="translate(261.676100628931,27.5)" xlink:href="dialog-4-4.png" x="10" height="21"/>
</g>
<g y="52.5" w="56.25" h="75" x="437.208333333333">
<rect y="52.5" width="56.25" style="stroke:black; stroke-width:1; fill:none" x="437.208333333333" height="75"/>
</g>
</g>
<g transform="translate(1,628)"/>
<g transform="translate(1,628)"><g y="52.5" w="58.0188679245283" h="75" x="203.657232704403">
<image y="52.5" width="58.0188679245283" xlink:href="image-pokey-1.gif" x="203.657232704403" height="75"/>
</g>
<g>
<polyline style="stroke:black; stroke-width:1; fill:white" points="261.676100628931,30.5 481.676100628931,30.5 481.676100628931,52.5 381.676100628931,52.5 266.676100628931,90 361.676100628931,52.5 261.676100628931,52.5 261.676100628931,30.5"/>
<image y="2" width="200" transform="translate(261.676100628931,30.5)" xlink:href="dialog-5-5.png" x="10" height="18"/>
</g>
<g y="52.5" w="56.25" h="75" x="437.208333333333">
<rect y="52.5" width="56.25" style="stroke:black; stroke-width:1; fill:none" x="437.208333333333" height="75"/>
</g>
<g>
<polyline style="stroke:black; stroke-width:1; fill:white" points="493.458333333333,28.5 664.458333333333,28.5 664.458333333333,52.5 588.958333333333,52.5 498.458333333333,90 568.958333333333,52.5 493.458333333333,52.5 493.458333333333,28.5"/>
<image y="2" width="151" transform="translate(493.458333333333,28.5)" xlink:href="dialog-5-6.png" x="10" height="20"/>
</g>
</g>
</svg>
