<svg width="702" height="309">
<rect width="700" style="fill: white" height="309"/>
<polyline transform="" points="1,1 699,1 699,151 1,151 1,1" style="fill:none; stroke:black; stroke-width:1" arrow=""/>
<polyline transform="" points="1,157 699,157 699,307 1,307 1,157" style="fill:none; stroke:black; stroke-width:1" arrow=""/>
<g transform="translate(1,1)"/>
<g transform="translate(1,1)"><g y="60" w="64.3137254901961" h="60" x="316.843137254902">
<image y="60" width="64.3137254901961" xlink:href="image-mouse-1.bmp" x="316.843137254902" height="60"/>
</g>
<g>
<polyline style="stroke:black; stroke-width:1; fill:white" points="381.156862745098,29 799.156862745098,29 799.156862745098,60 600.156862745098,60 386.156862745098,90 580.156862745098,60 381.156862745098,60 381.156862745098,29"/>
<image y="2" width="398" transform="translate(381.156862745098,29)" xlink:href="dialog-1-1.png" x="10" height="27"/>
</g>
</g>
<g transform="translate(1,157)"/>
<g transform="translate(1,157)"><g y="60" w="64.3137254901961" h="60" x="316.843137254902">
<image y="60" width="64.3137254901961" xlink:href="image-mouse-1.bmp" x="316.843137254902" height="60"/>
</g>
<g>
<polyline style="stroke:black; stroke-width:1; fill:white" points="381.156862745098,34 616.156862745098,34 616.156862745098,60 508.656862745098,60 386.156862745098,90 488.656862745098,60 381.156862745098,60 381.156862745098,34"/>
<image y="2" width="215" transform="translate(381.156862745098,34)" xlink:href="dialog-2-2.png" x="10" height="22"/>
</g>
</g>
</svg>
