<svg width="702" height="780">
<rect width="700" style="fill: white" height="780"/>
<polyline transform="" points="1,471 699,471 699,621 1,621 1,471" style="fill:none; stroke:black; stroke-width:1" arrow=""/>
<polyline transform="" points="1,1 699,1 699,151 1,151 1,1" style="fill:none; stroke:black; stroke-width:1" arrow=""/>
<polyline transform="" points="1,314 699,314 699,464 1,464 1,314" style="fill:none; stroke:black; stroke-width:1" arrow=""/>
<polyline transform="" points="1,157 699,157 699,307 1,307 1,157" style="fill:none; stroke:black; stroke-width:1" arrow=""/>
<polyline transform="" points="1,628 699,628 699,778 1,778 1,628" style="fill:none; stroke:black; stroke-width:1" arrow=""/>
<g transform="translate(1,1)"/>
<g transform="translate(1,1)"><g y="52.5" w="56.25" h="75" x="204.541666666667">
<rect y="52.5" width="56.25" style="stroke:black; stroke-width:1; fill:none" x="204.541666666667" height="75"/>
</g>
<g y="52.5" w="66.2068965517241" h="75" x="432.229885057471">
<image y="52.5" width="66.2068965517241" xlink:href="image-mao-1.bmp" x="432.229885057471" height="75"/>
</g>
<g>
<polyline style="stroke:black; stroke-width:1; fill:white" points="498.436781609195,29.5 582.436781609195,29.5 582.436781609195,52.5 550.436781609195,52.5 503.436781609195,90 530.436781609195,52.5 498.436781609195,52.5 498.436781609195,29.5"/>
<image y="2" width="64" transform="translate(498.436781609195,29.5)" xlink:href="dialog-1-1.png" x="10" height="19"/>
</g>
</g>
<g transform="translate(1,157)"/>
<g transform="translate(1,157)"><g y="52.5" w="56.25" h="75" x="204.541666666667">
<rect y="52.5" width="56.25" style="stroke:black; stroke-width:1; fill:none" x="204.541666666667" height="75"/>
</g>
<g>
<polyline style="stroke:black; stroke-width:1; fill:white" points="260.791666666667,29.5 464.791666666667,29.5 464.791666666667,52.5 372.791666666667,52.5 265.791666666667,90 352.791666666667,52.5 260.791666666667,52.5 260.791666666667,29.5"/>
<image y="2" width="184" transform="translate(260.791666666667,29.5)" xlink:href="dialog-2-2.png" x="10" height="19"/>
</g>
<g y="52.5" w="66.2068965517241" h="75" x="432.229885057471">
<image y="52.5" width="66.2068965517241" xlink:href="image-mao-1.bmp" x="432.229885057471" height="75"/>
</g>
<g>
<polyline style="stroke:black; stroke-width:1; fill:white" points="498.436781609195,33.5 529.436781609195,33.5 529.436781609195,52.5 523.936781609195,52.5 503.436781609195,90 503.936781609195,52.5 498.436781609195,52.5 498.436781609195,33.5"/>
<image y="2" width="11" transform="translate(498.436781609195,33.5)" xlink:href="dialog-2-3.png" x="10" height="15"/>
</g>
</g>
<g transform="translate(1,314)"/>
<g transform="translate(1,314)"><g y="52.5" w="56.25" h="75" x="204.541666666667">
<rect y="52.5" width="56.25" style="stroke:black; stroke-width:1; fill:none" x="204.541666666667" height="75"/>
</g>
<g>
<polyline style="stroke:black; stroke-width:1; fill:white" points="260.791666666667,-6.5 465.791666666667,-6.5 465.791666666667,52.5 373.291666666667,52.5 265.791666666667,90 353.291666666667,52.5 260.791666666667,52.5 260.791666666667,-6.5"/>
<image y="2" width="185" transform="translate(260.791666666667,-6.5)" xlink:href="dialog-3-4.png" x="10" height="55"/>
</g>
<g y="52.5" w="66.2068965517241" h="75" x="432.229885057471">
<image y="52.5" width="66.2068965517241" xlink:href="image-mao-1.bmp" x="432.229885057471" height="75"/>
</g>
<g>
<polyline style="stroke:black; stroke-width:1; fill:white" points="498.436781609195,29.5 610.436781609195,29.5 610.436781609195,52.5 564.436781609195,52.5 503.436781609195,90 544.436781609195,52.5 498.436781609195,52.5 498.436781609195,29.5"/>
<image y="2" width="92" transform="translate(498.436781609195,29.5)" xlink:href="dialog-3-5.png" x="10" height="19"/>
</g>
</g>
<g transform="translate(1,471)"/>
<g transform="translate(1,471)"><g y="52.5" w="72.3913043478261" h="75" x="196.471014492754">
<image y="52.5" width="72.3913043478261" xlink:href="image-will-1.bmp" x="196.471014492754" height="75"/>
</g>
<g>
<polyline style="stroke:black; stroke-width:1; fill:white" points="268.86231884058,2.5 540.86231884058,2.5 540.86231884058,52.5 414.86231884058,52.5 273.86231884058,90 394.86231884058,52.5 268.86231884058,52.5 268.86231884058,2.5"/>
<image y="2" width="252" transform="translate(268.86231884058,2.5)" xlink:href="dialog-4-6.png" x="10" height="46"/>
</g>
<g y="52.5" w="56.25" h="75" x="437.208333333333">
<rect y="52.5" width="56.25" style="stroke:black; stroke-width:1; fill:none" x="437.208333333333" height="75"/>
</g>
</g>
<g transform="translate(1,628)"/>
<g transform="translate(1,628)"><g y="60" w="64.3137254901961" h="60" x="316.843137254902">
<image y="60" width="64.3137254901961" xlink:href="image-mouse-1.bmp" x="316.843137254902" height="60"/>
</g>
<g>
<polyline style="stroke:black; stroke-width:1; fill:white" points="381.156862745098,37 703.156862745098,37 703.156862745098,60 552.156862745098,60 386.156862745098,90 532.156862745098,60 381.156862745098,60 381.156862745098,37"/>
<image y="2" width="302" transform="translate(381.156862745098,37)" xlink:href="dialog-5-7.png" x="10" height="19"/>
</g>
<g y="128" w="173" transform="translate(525,128)" h="22" x="525">
<rect y="0" width="173" style="stroke:black; stroke-width:1; fill:white" x="0" height="22"/>
<image y="2" width="153" xlink:href="caption-5-1.png" x="10" height="18"/>
</g>
</g>
</svg>
