<svg width="702" height="466">
<rect width="700" style="fill: white" height="466"/>
<polyline transform="" points="1,1 699,1 699,151 1,151 1,1" style="fill:none; stroke:black; stroke-width:1" arrow=""/>
<polyline transform="" points="1,314 699,314 699,464 1,464 1,314" style="fill:none; stroke:black; stroke-width:1" arrow=""/>
<polyline transform="" points="1,157 699,157 699,307 1,307 1,157" style="fill:none; stroke:black; stroke-width:1" arrow=""/>
<g transform="translate(1,1)"/>
<g transform="translate(1,1)"><g y="45" w="78.4615384615385" h="90" x="309.769230769231">
<image y="45" width="78.4615384615385" xlink:href="image-me-1.bmp" x="309.769230769231" height="90"/>
</g>
<g>
<polyline style="stroke:black; stroke-width:1; fill:white" points="388.23076923077,16 540.23076923077,16 540.23076923077,45 474.23076923077,45 393.23076923077,90 454.23076923077,45 388.23076923077,45 388.23076923077,16"/>
<image y="2" width="132" transform="translate(388.23076923077,16)" xlink:href="dialog-1-1.png" x="10" height="25"/>
</g>
</g>
<g transform="translate(1,157)"/>
<g transform="translate(1,157)"><g y="124" w="133" transform="translate(565,124)" h="26" x="565">
<rect y="0" width="133" style="stroke:black; stroke-width:1; fill:white" x="0" height="26"/>
<image y="2" width="113" xlink:href="caption-2-1.png" x="10" height="22"/>
</g>
<g y="45" w="78.4615384615385" h="90" x="309.769230769231">
<image y="45" width="78.4615384615385" xlink:href="image-me-1.bmp" x="309.769230769231" height="90"/>
</g>
</g>
<g transform="translate(1,314)"/>
<g transform="translate(1,314)"><g y="51" w="187" transform="translate(255,51)" h="48" x="255">
<rect y="0" width="187" style="stroke:black; stroke-width:1; fill:white" x="0" height="48"/>
<image y="2" width="167" xlink:href="caption-3-1.png" x="10" height="44"/>
</g>
<g y="135" w="107" transform="translate(295,135)" h="15" x="295">
<rect y="0" width="107" style="stroke:black; stroke-width:1; fill:white" x="0" height="15"/>
<image y="2" width="87" xlink:href="caption-3-2.png" x="10" height="11"/>
</g>
</g>
</svg>
