<svg width="702" height="1251">
<rect width="700" style="fill: white" height="1251"/>
<polyline transform="" points="1,785 699,785 699,935 1,935 1,785" style="fill:none; stroke:black; stroke-width:1" arrow=""/>
<polyline transform="" points="1,314 699,314 699,464 1,464 1,314" style="fill:none; stroke:black; stroke-width:1" arrow=""/>
<polyline transform="" points="1,942 699,942 699,1092 1,1092 1,942" style="fill:none; stroke:black; stroke-width:1" arrow=""/>
<polyline transform="" points="1,157 699,157 699,307 1,307 1,157" style="fill:none; stroke:black; stroke-width:1" arrow=""/>
<polyline transform="" points="1,1099 699,1099 699,1249 1,1249 1,1099" style="fill:none; stroke:black; stroke-width:1" arrow=""/>
<polyline transform="" points="1,1 699,1 699,151 1,151 1,1" style="fill:none; stroke:black; stroke-width:1" arrow=""/>
<polyline transform="" points="1,471 699,471 699,621 1,621 1,471" style="fill:none; stroke:black; stroke-width:1" arrow=""/>
<polyline transform="" points="1,628 699,628 699,778 1,778 1,628" style="fill:none; stroke:black; stroke-width:1" arrow=""/>
<g transform="translate(1,1)"/>
<g transform="translate(1,1)"><g y="125" w="206" transform="translate(246,125)" h="25" x="246">
<rect y="0" width="206" style="stroke:black; stroke-width:1; fill:white" x="0" height="25"/>
<image y="2" width="186" xlink:href="caption-1-1.png" x="10" height="21"/>
</g>
</g>
<g transform="translate(1,157)"/>
<g transform="translate(1,157)"><g y="125" w="190" transform="translate(254,125)" h="25" x="254">
<rect y="0" width="190" style="stroke:black; stroke-width:1; fill:white" x="0" height="25"/>
<image y="2" width="170" xlink:href="caption-2-1.png" x="10" height="21"/>
</g>
</g>
<g transform="translate(1,314)"/>
<g transform="translate(1,314)"><g y="52.5" w="66.2068965517241" h="75" x="315.896551724138">
<image y="52.5" width="66.2068965517241" xlink:href="image-mao-1.bmp" x="315.896551724138" height="75"/>
</g>
<g>
<polyline style="stroke:black; stroke-width:1; fill:white" points="382.103448275862,26.5 684.103448275862,26.5 684.103448275862,52.5 543.103448275862,52.5 387.103448275862,90 523.103448275862,52.5 382.103448275862,52.5 382.103448275862,26.5"/>
<image y="2" width="282" transform="translate(382.103448275862,26.5)" xlink:href="dialog-3-1.png" x="10" height="22"/>
</g>
</g>
<g transform="translate(1,471)"/>
<g transform="translate(1,471)"><g y="37.5" w="118.730769230769" h="105" x="289.634615384615">
<image y="37.5" width="118.730769230769" xlink:href="image-commiemobile-1.bmp" x="289.634615384615" height="105"/>
</g>
<g y="125" w="195" transform="translate(251,125)" h="25" x="251">
<rect y="0" width="195" style="stroke:black; stroke-width:1; fill:white" x="0" height="25"/>
<image y="2" width="175" xlink:href="caption-4-1.png" x="10" height="21"/>
</g>
</g>
<g transform="translate(1,628)"/>
<g transform="translate(1,628)"><g y="52.5" w="65.0943396226415" h="75" x="316.452830188679">
<image y="52.5" width="65.0943396226415" xlink:href="image-marx-1.bmp" x="316.452830188679" height="75"/>
</g>
<g>
<polyline style="stroke:black; stroke-width:1; fill:white" points="381.54716981132,30.5 682.54716981132,30.5 682.54716981132,52.5 542.04716981132,52.5 386.54716981132,90 522.04716981132,52.5 381.54716981132,52.5 381.54716981132,30.5"/>
<image y="2" width="281" transform="translate(381.54716981132,30.5)" xlink:href="dialog-5-2.png" x="10" height="18"/>
</g>
</g>
<g transform="translate(1,785)"/>
<g transform="translate(1,785)"><g y="125" w="164" transform="translate(267,125)" h="25" x="267">
<rect y="0" width="164" style="stroke:black; stroke-width:1; fill:white" x="0" height="25"/>
<image y="2" width="144" xlink:href="caption-6-1.png" x="10" height="21"/>
</g>
</g>
<g transform="translate(1,942)"/>
<g transform="translate(1,942)"><g y="45" w="73.2558139534884" h="90" x="312.372093023256">
<image y="45" width="73.2558139534884" xlink:href="image-al-1.bmp" x="312.372093023256" height="90"/>
</g>
<g>
<polyline style="stroke:black; stroke-width:1; fill:white" points="385.627906976744,23 687.627906976744,23 687.627906976744,45 546.627906976744,45 390.627906976744,90 526.627906976744,45 385.627906976744,45 385.627906976744,23"/>
<image y="2" width="282" transform="translate(385.627906976744,23)" xlink:href="dialog-7-3.png" x="10" height="18"/>
</g>
</g>
<g transform="translate(1,1099)"/>
<g transform="translate(1,1099)"><g y="89.25" w="1.5" h="1.5" x="348.25">
<circle cx="349" r="" cy="90" style="stroke:black; stroke-width:1; fill:none"/>
</g>
<g>
<polyline style="stroke:black; stroke-width:1; fill:white" points="349.75,63.25 653.75,63.25 653.75,89.25 511.75,89.25 354.75,90 491.75,89.25 349.75,89.25 349.75,63.25"/>
<image y="2" width="284" transform="translate(349.75,63.25)" xlink:href="dialog-8-4.png" x="10" height="22"/>
</g>
<g y="125" w="140" transform="translate(558,125)" h="25" x="558">
<rect y="0" width="140" style="stroke:black; stroke-width:1; fill:white" x="0" height="25"/>
<image y="2" width="120" xlink:href="caption-8-1.png" x="10" height="21"/>
</g>
</g>
</svg>
