<svg width="702" height="623">
<rect width="700" style="fill: white" height="623"/>
<polyline transform="" points="1,471 699,471 699,621 1,621 1,471" style="fill:none; stroke:black; stroke-width:1" arrow=""/>
<polyline transform="" points="1,1 699,1 699,151 1,151 1,1" style="fill:none; stroke:black; stroke-width:1" arrow=""/>
<polyline transform="" points="1,314 699,314 699,464 1,464 1,314" style="fill:none; stroke:black; stroke-width:1" arrow=""/>
<polyline transform="" points="1,157 699,157 699,307 1,307 1,157" style="fill:none; stroke:black; stroke-width:1" arrow=""/>
<g transform="translate(1,1)"/>
<g transform="translate(1,1)"><g y="52.5" w="56.25" h="75" x="320.875">
<rect y="52.5" width="56.25" style="stroke:black; stroke-width:1; fill:none" x="320.875" height="75"/>
</g>
<g>
<polyline style="stroke:black; stroke-width:1; fill:white" points="377.125,39.5 406.125,39.5 406.125,52.5 401.625,52.5 382.125,90 381.625,52.5 377.125,52.5 377.125,39.5"/>
<image y="2" width="9" transform="translate(377.125,39.5)" xlink:href="dialog-1-1.png" x="10" height="9"/>
</g>
</g>
<g transform="translate(1,157)"/>
<g transform="translate(1,157)"><g y="52.5" w="56.25" h="75" x="320.875">
<rect y="52.5" width="56.25" style="stroke:black; stroke-width:1; fill:none" x="320.875" height="75"/>
</g>
<g>
<polyline style="stroke:black; stroke-width:1; fill:white" points="377.125,34.5 406.125,34.5 406.125,52.5 401.625,52.5 382.125,90 381.625,52.5 377.125,52.5 377.125,34.5"/>
<image y="2" width="9" transform="translate(377.125,34.5)" xlink:href="dialog-2-2.png" x="10" height="14"/>
</g>
</g>
<g transform="translate(1,471)"/>
<g transform="translate(1,471)"><g y="52.5" w="56.25" h="75" x="320.875">
<rect y="52.5" width="56.25" style="stroke:black; stroke-width:1; fill:none" x="320.875" height="75"/>
</g>
<g>
<polyline style="stroke:black; stroke-width:1; fill:white" points="377.125,26.5 722.125,26.5 722.125,52.5 559.625,52.5 382.125,90 539.625,52.5 377.125,52.5 377.125,26.5"/>
<image y="2" width="325" transform="translate(377.125,26.5)" xlink:href="dialog-4-3.png" x="10" height="22"/>
</g>
</g>
</svg>
