<svg width="702" height="466">
<rect width="700" style="fill: white" height="466"/>
<polyline transform="" points="1,1 699,1 699,151 1,151 1,1" style="fill:none; stroke:black; stroke-width:1" arrow=""/>
<polyline transform="" points="1,314 699,314 699,464 1,464 1,314" style="fill:none; stroke:black; stroke-width:1" arrow=""/>
<polyline transform="" points="1,157 699,157 699,307 1,307 1,157" style="fill:none; stroke:black; stroke-width:1" arrow=""/>
<g transform="translate(1,1)"/>
<g transform="translate(1,1)"><g y="60" w="64.3137254901961" h="60" x="316.843137254902">
<image y="60" width="64.3137254901961" xlink:href="image-mouse-1.bmp" x="316.843137254902" height="60"/>
</g>
<g>
<polyline style="stroke:black; stroke-width:1; fill:white" points="381.156862745098,39 473.156862745098,39 473.156862745098,60 437.156862745098,60 386.156862745098,90 417.156862745098,60 381.156862745098,60 381.156862745098,39"/>
<image y="2" width="72" transform="translate(381.156862745098,39)" xlink:href="dialog-1-1.png" x="10" height="17"/>
</g>
</g>
<g transform="translate(1,157)"/>
<g transform="translate(1,157)"><g y="52.5" w="66.2068965517241" h="75" x="199.563218390805">
<image y="52.5" width="66.2068965517241" xlink:href="image-mao-1.bmp" x="199.563218390805" height="75"/>
</g>
<g>
<polyline style="stroke:black; stroke-width:1; fill:white" points="265.770114942529,26.5 358.770114942529,26.5 358.770114942529,52.5 322.270114942529,52.5 270.770114942529,90 302.270114942529,52.5 265.770114942529,52.5 265.770114942529,26.5"/>
<image y="2" width="73" transform="translate(265.770114942529,26.5)" xlink:href="dialog-2-2.png" x="10" height="22"/>
</g>
<g y="60" w="64.3137254901961" h="60" x="433.176470588235">
<image y="60" width="64.3137254901961" xlink:href="image-mouse-1.bmp" x="433.176470588235" height="60"/>
</g>
</g>
<g transform="translate(1,314)"/>
<g transform="translate(1,314)"><g y="124" w="661" transform="translate(18,124)" h="26" x="18">
<rect y="0" width="661" style="stroke:black; stroke-width:1; fill:white" x="0" height="26"/>
<image y="2" width="641" xlink:href="caption-3-1.png" x="10" height="22"/>
</g>
<g y="60" w="64.3137254901961" h="60" x="200.509803921569">
<image y="60" width="64.3137254901961" xlink:href="image-mouse-1.bmp" x="200.509803921569" height="60"/>
</g>
<g y="52.5" w="66.2068965517241" h="75" x="432.229885057471">
<image y="52.5" width="66.2068965517241" xlink:href="image-mao-1.bmp" x="432.229885057471" height="75"/>
</g>
</g>
</svg>
