<svg height="1094" width="702">
<rect height="1094" width="700" style="fill: white"/>
<polyline transform="" style="fill:none; stroke:black; stroke-width:1" arrow="" points="1,785 699,785 699,935 1,935 1,785"/>
<polyline transform="" style="fill:none; stroke:black; stroke-width:1" arrow="" points="1,471 699,471 699,621 1,621 1,471"/>
<polyline transform="" style="fill:none; stroke:black; stroke-width:1" arrow="" points="1,1 699,1 699,151 1,151 1,1"/>
<polyline transform="" style="fill:none; stroke:black; stroke-width:1" arrow="" points="1,314 699,314 699,464 1,464 1,314"/>
<polyline transform="" style="fill:none; stroke:black; stroke-width:1" arrow="" points="1,942 699,942 699,1092 1,1092 1,942"/>
<polyline transform="" style="fill:none; stroke:black; stroke-width:1" arrow="" points="1,157 699,157 699,307 1,307 1,157"/>
<polyline transform="" style="fill:none; stroke:black; stroke-width:1" arrow="" points="1,628 699,628 699,778 1,778 1,628"/>
</svg>
