<svg width="702" height="466">
<rect width="700" style="fill: white" height="466"/>
<polyline transform="" points="1,1 699,1 699,151 1,151 1,1" style="fill:none; stroke:black; stroke-width:1" arrow=""/>
<polyline transform="" points="1,314 699,314 699,464 1,464 1,314" style="fill:none; stroke:black; stroke-width:1" arrow=""/>
<polyline transform="" points="1,157 699,157 699,307 1,307 1,157" style="fill:none; stroke:black; stroke-width:1" arrow=""/>
<g transform="translate(1,1)"/>
<g transform="translate(1,1)"><g y="52.5" w="66.6666666666667" h="75" x="315.666666666667">
<image y="52.5" width="66.6666666666667" xlink:href="image-lenin-1.gif" x="315.666666666667" height="75"/>
</g>
<g>
<polyline style="stroke:black; stroke-width:1; fill:white" points="382.333333333334,30.5 484.333333333334,30.5 484.333333333334,52.5 443.333333333334,52.5 387.333333333334,90 423.333333333334,52.5 382.333333333334,52.5 382.333333333334,30.5"/>
<image y="2" width="82" transform="translate(382.333333333334,30.5)" xlink:href="dialog-1-1.png" x="10" height="18"/>
</g>
</g>
<g transform="translate(1,314)"/>
<g transform="translate(1,314)"><g y="89.25" w="1.5" h="1.5" x="348.25">
<circle cx="349" r="" cy="90" style="stroke:black; stroke-width:1; fill:none"/>
</g>
<g y="0" w="317" transform="translate(190,0)" h="40" x="190">
<rect y="0" width="317" style="stroke:black; stroke-width:1; fill:white" x="0" height="40"/>
<image y="2" width="297" xlink:href="caption-3-1.png" x="10" height="36"/>
</g>
<g y="124" w="278" transform="translate(420,124)" h="26" x="420">
<rect y="0" width="278" style="stroke:black; stroke-width:1; fill:white" x="0" height="26"/>
<image y="2" width="258" xlink:href="caption-3-2.png" x="10" height="22"/>
</g>
</g>
</svg>
